<?xml version="1.0" standalone="no"?>
<!DOCTYPE svg PUBLIC "-//W3C//DTD SVG 20010904//EN"
 "http://www.w3.org/TR/2001/REC-SVG-20010904/DTD/svg10.dtd">
<svg version="1.0" xmlns="http://www.w3.org/2000/svg"
 width="118.000000pt" height="118.000000pt" viewBox="0 0 118.000000 118.000000"
 preserveAspectRatio="xMidYMid meet">
<metadata>
Created by potrace 1.11, written by Peter Selinger 2001-2013
</metadata>
<g transform="translate(0.000000,118.000000) scale(0.100000,-0.100000)"
fill="#000000" stroke="none">
<path d="M370 1008 c0 -7 23 -75 51 -150 l52 -138 28 33 c112 131 176 212 171
214 -4 1 -61 12 -127 23 -66 11 -132 23 -147 26 -19 4 -28 1 -28 -8z m147 -63
c67 -11 67 -11 21 -70 l-43 -55 -13 26 c-22 42 -41 102 -34 108 3 4 11 4 18 2
7 -3 30 -8 51 -11z"/>
<path d="M663 628 c-98 -80 -110 -93 -100 -110 7 -10 14 -18 18 -18 4 0 193
152 222 179 4 4 -1 15 -11 24 -17 16 -24 12 -129 -75z"/>
<path d="M966 697 c-18 -13 -17 -16 8 -61 31 -55 27 -63 -34 -91 -40 -18 -47
-29 -31 -53 7 -11 18 -9 59 12 28 14 54 26 56 26 3 0 17 -22 31 -50 27 -52 31
-56 55 -40 12 8 11 17 -12 64 l-27 55 54 26 c59 27 64 35 39 55 -13 11 -23 9
-64 -13 l-49 -26 -30 54 c-17 30 -33 55 -34 55 -2 0 -11 -6 -21 -13z"/>
<path d="M80 672 c-134 -67 -86 -265 64 -265 150 0 197 203 62 267 -44 21 -82
20 -126 -2z m109 -47 c31 -16 52 -61 46 -96 -6 -31 -42 -66 -72 -72 -91 -17
-149 89 -84 154 33 32 67 37 110 14z"/>
<path d="M3 228 c2 -52 3 -53 32 -54 42 -1 68 14 60 34 -4 9 -8 28 -9 42 -1
22 -6 25 -43 28 l-42 3 2 -53z m57 22 c0 -5 -7 -10 -15 -10 -8 0 -15 5 -15 10
0 6 7 10 15 10 8 0 15 -4 15 -10z m10 -41 c0 -6 -24 -19 -36 -19 -2 0 -4 6 -4
14 0 9 9 14 20 13 11 -1 20 -4 20 -8z"/>
<path d="M148 269 c-24 -13 -24 -68 0 -85 23 -18 57 -17 76 2 19 18 21 65 4
82 -15 15 -57 15 -80 1z m61 -27 c11 -21 0 -45 -23 -48 -23 -3 -41 33 -25 52
16 19 36 18 48 -4z"/>
<path d="M280 225 c0 -59 7 -68 28 -35 7 12 17 18 22 15 5 -3 17 6 26 20 22
33 5 55 -42 55 l-34 0 0 -55z m55 24 c10 -15 -1 -23 -20 -15 -9 3 -13 10 -10
16 8 13 22 13 30 -1z"/>
<path d="M400 225 c0 -56 15 -74 26 -31 l6 25 23 -27 c30 -34 41 -24 18 16
-17 29 -17 31 1 51 26 29 0 28 -31 0 l-22 -22 4 22 c2 13 -1 21 -11 21 -10 0
-14 -14 -14 -55z"/>
<path d="M544 233 c-10 -26 -20 -51 -22 -55 -2 -5 3 -8 12 -8 9 0 16 4 16 9 0
18 33 21 52 5 28 -26 33 -9 11 43 -26 64 -45 66 -69 6z m40 2 c3 -8 1 -15 -4
-15 -6 0 -10 7 -10 15 0 8 2 15 4 15 2 0 6 -7 10 -15z"/>
<path d="M672 233 c-6 -27 -14 -56 -16 -65 -3 -11 1 -18 10 -18 8 0 14 5 14
10 0 15 68 12 73 -2 10 -30 17 4 11 60 l-7 62 -36 0 c-35 0 -37 -2 -49 -47z
m60 -8 c-5 -36 -5 -37 -25 -29 -12 4 -14 11 -7 29 5 13 6 26 2 30 -4 4 2 5 13
3 16 -3 19 -10 17 -33z"/>
<path d="M803 225 c0 -63 17 -74 42 -26 21 41 30 44 30 10 0 -51 20 -35 23 19
4 62 -14 70 -47 20 l-21 -33 0 33 c0 20 -5 32 -14 32 -10 0 -13 -15 -13 -55z"/>
<path d="M950 240 c24 -47 24 -50 5 -50 -8 0 -15 -5 -15 -11 0 -6 10 -9 23 -7
28 4 89 108 62 108 -8 0 -20 -12 -26 -27 l-11 -28 -14 28 c-8 15 -21 27 -30
27 -12 0 -11 -7 6 -40z"/>
<path d="M1070 225 c0 -30 5 -55 10 -55 10 0 13 10 13 43 0 16 1 17 17 2 17
-15 19 -15 29 2 11 19 13 17 15 -19 0 -12 7 -23 14 -25 9 -4 12 11 12 51 0 61
-18 76 -41 34 l-12 -22 -15 22 c-26 40 -42 28 -42 -33z"/>
</g>
</svg>
